HIERARCHY
ROOT RootJoint
{
    OFFSET   0.000000   0.000000   0.000000
    CHANNELS 6 Xposition Yposition Zposition Xrotation Yrotation Zrotation
    JOINT pelvis_lowerback
    {
        OFFSET   0.000000   0.093605   0.000000
        CHANNELS 3 Xrotation Yrotation Zrotation
        JOINT lowerback_torso
        {
            OFFSET   0.000000   0.100000   0.000000
            CHANNELS 3 Xrotation Yrotation Zrotation
            JOINT torso_head
            {
                OFFSET   0.000000   0.282350   0.000000
                CHANNELS 3 Xrotation Yrotation Zrotation
                End Site
                {
                    OFFSET   0.000000   0.192650   0.000000
                }
            }
            JOINT rTorso_Clavicle
            {
                OFFSET  -0.001000   0.157500   0.000000
                CHANNELS 3 Xrotation Yrotation Zrotation
                JOINT rShoulder
                {
                    OFFSET  -0.117647   0.000000   0.000000
                    CHANNELS 3 Xrotation Yrotation Zrotation
                    JOINT rElbow
                    {
                        OFFSET  -0.245000   0.000000   0.000000
                        CHANNELS 3 Xrotation Yrotation Zrotation
                        JOINT rWrist
                        {
                            OFFSET  -0.240000   0.000000   0.000000
                            CHANNELS 3 Xrotation Yrotation Zrotation
                            End Site
                            {
                                OFFSET  -0.116353  -0.002500   0.000000
                            }
                        }
                    }
                }
            }
            JOINT lTorso_Clavicle
            {
                OFFSET   0.001000   0.157500   0.000000
                CHANNELS 3 Xrotation Yrotation Zrotation
                JOINT lShoulder
                {
                    OFFSET   0.117647   0.000000   0.000000
                    CHANNELS 3 Xrotation Yrotation Zrotation
                    JOINT lElbow
                    {
                        OFFSET   0.245000   0.000000   0.000000
                        CHANNELS 3 Xrotation Yrotation Zrotation
                        JOINT lWrist
                        {
                            OFFSET   0.240000   0.000000   0.000000
                            CHANNELS 3 Xrotation Yrotation Zrotation
                            End Site
                            {
                                OFFSET   0.116353  -0.002500   0.000000
                            }
                        }
                    }
                }
            }
        }
    }
    JOINT rHip
    {
        OFFSET  -0.100000  -0.051395   0.000000
        CHANNELS 3 Xrotation Yrotation Zrotation
        JOINT rKnee
        {
            OFFSET   0.000000  -0.410000   0.000000
            CHANNELS 3 Xrotation Yrotation Zrotation
            JOINT rAnkle
            {
                OFFSET   0.000000  -0.390000   0.000000
                CHANNELS 3 Xrotation Yrotation Zrotation
                JOINT rToeJoint
                {
                    OFFSET   0.000000  -0.050000   0.130000
                    CHANNELS 3 Xrotation Yrotation Zrotation
                    End Site
                    {
                        OFFSET  -0.010000   0.002000   0.060000
                    }
                }
            }
        }
    }
    JOINT lHip
    {
        OFFSET   0.100000  -0.051395   0.000000
        CHANNELS 3 Xrotation Yrotation Zrotation
        JOINT lKnee
        {
            OFFSET   0.000000  -0.410000   0.000000
            CHANNELS 3 Xrotation Yrotation Zrotation
            JOINT lAnkle
            {
                OFFSET   0.000000  -0.390000   0.000000
                CHANNELS 3 Xrotation Yrotation Zrotation
                JOINT lToeJoint
                {
                    OFFSET   0.000000  -0.050000   0.130000
                    CHANNELS 3 Xrotation Yrotation Zrotation
                    End Site
                    {
                        OFFSET   0.010000   0.002000   0.060000
                    }
                }
            }
        }
    }
}
MOTION
Frames: 17
Frame Time:   0.008333
 -2.287901   0.969972   4.217189  -9.236461   4.357860  -0.405294   7.077574   1.123799   0.545720   0.556582  -4.481084   3.027191   5.748637  -0.130006  -0.589455   3.161707   3.277606  -7.584734  -6.927221   4.441681  46.059818  -0.000266  71.002563  -0.000037  -1.231358   1.425334  -5.804844   1.826077  -9.755355   8.738645 -12.494095 -13.785601 -39.858239  -0.004699 -69.118171  -0.004368  -2.230971  -6.113076   5.440213 -21.214212  -6.377221  -5.504887  42.075113   0.000248   0.002077   8.556625  -1.370665   8.772064   0.086234  -0.000006   0.000030  -9.561941   8.336295   5.051656  30.799516   0.001954  -0.001259  27.736131   0.469054  -3.045076 -23.980059   0.090495  -0.048130
 -2.288460   0.957943   4.221682  -9.540510   4.771550  -0.213976   6.890134   0.876928   0.423531   0.396133  -4.455289   2.910466   5.520746  -0.323672  -0.419333   3.036992   3.044538  -6.928743  -6.750499   4.496772  46.061595   0.005074  70.354840  -0.008385  -1.203610   1.590690  -5.670501   1.714566  -9.375449   8.302506 -12.602213 -13.486395 -39.958027   0.006447 -68.759936   0.007919  -2.178747  -6.169395   5.301942 -20.145716  -6.333195  -5.379508  42.138082   0.000222   0.001968   6.578569  -1.851075   8.466683   0.325448   0.000813   0.000523  -9.190280   7.895351   4.785406  32.792200   0.001336  -0.002266  23.485848   0.822319  -2.550628 -33.616714   0.122985  -0.017609
 -2.289472   0.946230   4.225846  -9.785227   5.286777  -0.114645   6.712366   0.640241   0.343331   0.230338  -4.436498   2.841947   5.299102  -0.506134  -0.254492   2.908279   2.809288  -6.319610  -6.594288   4.520340  46.039623   0.007975  69.712231  -0.013259  -1.199839   1.556857  -5.688563   1.588547  -9.001811   7.921470 -12.714201 -13.179079 -40.016665   0.015291 -68.398808   0.017495  -2.144404  -6.095511   5.303476 -19.081818  -6.295777  -5.174099  42.251443   0.000294   0.002232   4.712739  -2.292875   8.164597   0.427347   0.001053   0.000721  -8.949476   7.441019   4.667971  34.497860   0.000888  -0.000991  19.536129   1.128934  -2.064398 -41.699175   0.135168   0.004751
 -2.290696   0.934821   4.229695  -9.986834   5.843475  -0.015112   6.546617   0.434057   0.257544   0.067747  -4.407896   2.774936   5.093256  -0.676529  -0.101978   2.787149   2.580695  -5.762926  -6.449468   4.533242  46.007687   0.008579  69.106107  -0.014945  -1.202478   1.462115  -5.762235   1.462431  -8.635316   7.586457 -12.820874 -12.877955 -40.050297   0.021488 -68.055462   0.024104  -2.115665  -5.975779   5.376140 -18.041596  -6.257278  -5.002570  42.392169   0.000445   0.002618   2.969951  -2.695835   7.870061   0.521014   0.001234   0.000874  -8.802830   7.003546   4.631303  36.035911   0.000190   0.001275  15.799717   1.227884  -1.854719 -49.319389   0.121961   0.018180
 -2.292008   0.926272   4.233011 -10.317703   6.367083   0.528865   6.548202   0.276754  -0.163745   0.001094  -4.348093   2.571215   4.897816  -0.836070   0.025848   2.697329   2.390184  -5.071220  -6.299570   4.546088  46.048052   0.005099  68.517096  -0.013071  -1.207845   1.299818  -5.841123   1.372718  -8.282094   7.156416 -12.897427 -12.567667 -40.101783   0.025314 -67.701824   0.028952  -2.090452  -5.770881   5.492242 -16.869874  -6.151295  -5.229154  42.465180   0.000433   0.002483   1.345297  -3.066024   7.581654   0.648072   0.001437   0.001053  -8.996193   6.709450   4.277089  38.410545  -0.000101   0.006212  11.411683   1.196701  -1.907903 -45.758154   0.098682   0.013320
 -2.293487   0.919010   4.236218 -10.620358   6.822278   0.954458   6.507869   0.185477  -0.410985  -0.031435  -4.245686   2.386579   4.726646  -0.983144   0.134754   2.623154   2.209919  -4.483804  -6.151643   4.564598  46.076439   0.001777  67.973369  -0.010637  -1.218616   1.131811  -5.827999   1.324835  -7.920353   6.754395 -12.937620 -12.268840 -40.180183   0.026948 -67.375258   0.031112  -2.076716  -5.535002   5.540815 -15.720910  -6.081434  -5.293446  42.575299   0.000415   0.002552  -0.174053  -3.402654   7.304312   0.755266   0.001458   0.001135  -9.131006   6.458199   4.049246  40.349176  -0.000339   0.009170   7.998148   1.164299  -1.903012 -43.068267   0.077824   0.009481
 -2.295144   0.912526   4.239288 -10.864869   7.255777   1.278634   6.434504   0.121857  -0.559657  -0.077540  -4.126667   2.254269   4.568882  -1.119873   0.244612   2.547683   2.039084  -3.980608  -6.019619   4.582783  46.081997  -0.000669  67.471281  -0.008488  -1.227919   0.984883  -5.801141   1.289967  -7.560140   6.400549 -12.962613 -11.980684 -40.248287   0.027510 -67.070997   0.031731  -2.066659  -5.289883   5.553124 -14.644436  -6.044050  -5.251758  42.722150   0.000407   0.002781  -1.594001  -3.708256   7.039106   0.846401   0.001400   0.001159  -9.235126   6.207982   3.912436  41.980546  -0.000493   0.010794   4.999784   1.168589  -1.825082 -40.639848   0.059137   0.006716
 -2.296914   0.905600   4.242554 -11.325723   7.592611   1.480771   6.633677  -0.002466  -0.580481  -0.142940  -3.990522   2.162280   4.259233  -1.253710   0.364195   2.246015   1.947376  -3.384629  -5.999068   4.646360  46.030180   0.000412  65.936834  -0.015094  -1.159466   1.551904  -5.809741   0.987438  -7.048839   5.834467 -12.991517 -11.511358 -40.306086   0.046612 -66.082905   0.054317  -2.022819  -5.657730   5.578853 -13.338010  -5.949946  -4.990015  42.979847   0.000408   0.003606  -3.866687  -4.149904   6.460396   0.986805   0.001745   0.001292  -8.928328   5.769137   3.874940  43.448008  -0.002408   0.008876   1.284262   1.575963  -1.424218 -37.331383   0.029452   0.000830
 -2.298710   0.898357   4.245758 -11.759763   7.897128   1.680832   6.825244  -0.116595  -0.610623  -0.196672  -3.842280   2.084061   3.949252  -1.384782   0.479984   1.981182   1.837334  -2.787961  -5.960327   4.663042  45.971743  -0.000058  64.427652  -0.019079  -1.130316   1.741590  -5.946184   0.731657  -6.498161   5.270263 -12.984347 -10.999120 -40.343600   0.059211 -65.092837   0.069888  -2.011627  -5.721668   5.787284 -12.096357  -5.861796  -4.720733  43.256174   0.000365   0.004295  -6.002632  -4.541891   5.904147   1.048532   0.001638   0.001189  -8.632399   5.362111   3.778120  44.891757  -0.003363   0.006880  -2.365086   1.891865  -1.083797 -34.299843   0.011362  -0.001854
 -2.300514   0.891250   4.248623 -12.197962   8.162670   1.811676   7.063180  -0.202003  -0.579913  -0.210756  -3.681749   2.039642   3.653996  -1.507932   0.589949   1.747982   1.718122  -2.202322  -5.910247   4.659259  45.917391  -0.002987  62.996176  -0.019583  -1.118213   1.769217  -6.126730   0.521693  -5.945631   4.706664 -12.951699 -10.487221 -40.386131   0.064544 -64.145281   0.077636  -2.015002  -5.632287   6.051911 -11.042958  -5.742520  -4.431543  43.498782   0.000389   0.004601  -8.476940  -4.909518   5.248976  -4.471531  -0.021955  -0.016004  -8.341946   4.957375   3.750935  46.257339  -0.004229   0.005092  -5.817454   2.211575  -0.725973 -31.522671  -0.002490  -0.002740
 -2.302336   0.884292   4.251255 -12.647202   8.433380   1.923975   7.323160  -0.279852  -0.542889  -0.178867  -3.526161   2.014450   3.383231  -1.623678   0.696557   1.549264   1.589409  -1.634456  -5.846154   4.644419  45.878415  -0.007045  61.651077  -0.017773  -1.114369   1.728038  -6.290958   0.350660  -5.405673   4.166139 -12.900367  -9.991916 -40.432602   0.065191 -63.249269   0.080062  -2.026180  -5.468928   6.297066 -10.101851  -5.639036  -4.155585  43.776314   0.000448   0.004944 -10.766616  -5.216842   4.636443  -9.124299  -0.032399  -0.030343  -8.047924   4.565358   3.755661  47.544320  -0.004769   0.003999  -9.056117   2.499992  -0.368909 -28.977835  -0.012408  -0.002010
 -2.304166   0.877496   4.253687 -13.096888   8.722075   2.032956   7.590368  -0.353678  -0.509149  -0.115921  -3.380546   1.995733   3.134818  -1.732312   0.797141   1.380724   1.454287  -1.087806  -5.771144   4.621866  45.852444  -0.011180  60.389725  -0.014788  -1.115322   1.649626  -6.425810   0.210281  -4.886196   3.650357 -12.837479  -9.519016 -40.482695   0.063084 -62.406083   0.079162  -2.041789  -5.268461   6.510360  -9.241352  -5.545697  -3.896914  44.066124   0.000543   0.005252 -12.901753  -5.478216   4.055326 -13.290099  -0.035809  -0.042002  -7.761970   4.192572   3.779323  48.759311  -0.004943   0.003568 -12.094145   2.754667  -0.019296 -26.645090  -0.019151  -0.000119
 -2.305888   0.871844   4.255740 -13.614340   8.893381   1.924359   7.937605  -0.367583  -0.286149   0.012833  -3.203312   2.059027   2.904473  -1.831499   0.894695   1.224630   1.343785  -0.536562  -5.701320   4.599697  45.828078  -0.015339  59.195214  -0.011832  -1.121204   1.517159  -6.549726   0.113685  -4.390232   3.083629 -12.754182  -9.062803 -40.571466   0.057788 -61.607755   0.075022  -2.061809  -5.029343   6.704923  -8.675219  -5.636954  -3.464012  44.847547  -0.000216   0.006111 -15.621165  -5.842880   3.363437 -12.024162  -0.026032  -0.031943  -7.342923   3.810561   4.011804  49.743450  -0.005336   0.002435 -14.771342   3.003861   0.372393 -24.508475  -0.024179  -0.000338
 -2.307306   0.867723   4.257547 -14.033447   8.849839   1.857713   8.259891  -0.398985  -0.077340   0.099603  -3.014784   2.070846   2.496305  -1.927391   1.028083   1.067035   1.333240   0.118573  -5.454634   4.651827  45.856753  -0.029184  57.099198  -0.006687  -1.063648   2.131819  -6.735847   0.031285  -3.776718   2.460177 -12.403583  -8.448112 -40.799061   0.054123 -59.508542   0.083436  -2.047901  -5.861826   6.850095  -8.200664  -5.537493  -3.127043  45.385381  -0.000471   0.005851 -17.606010  -5.956376   2.807952 -11.118923  -0.019390  -0.023627  -6.789250   3.441269   4.085022  50.232145  -0.005390   0.000743 -16.932207   3.363438   0.760220 -22.397408  -0.027570  -0.002531
 -2.308650   0.864343   4.259008 -14.359744   8.794022   1.782760   8.575893  -0.444852   0.120298   0.215669  -2.829742   2.087300   2.071007  -2.025093   1.163458   0.995773   1.262673   0.778669  -5.149208   4.643839  45.906461  -0.041775  55.068255  -0.000878  -1.052090   2.351078  -6.856306   0.062974  -3.100486   1.825831 -11.966591  -7.764918 -41.021355   0.043219 -57.424223   0.082817  -2.106107  -6.042910   6.948576  -7.781870  -5.392440  -2.806715  45.733461  -0.000469   0.005336 -19.272331  -5.982241   2.340360 -10.285094  -0.014504  -0.016719  -6.278246   3.077107   4.134176  50.519905  -0.004987  -0.000170 -18.825096   3.697412   1.166951 -20.456178  -0.029529  -0.004425
 -2.309945   0.861379   4.260062 -14.622650   8.744808   1.705506   8.915548  -0.485227   0.301531   0.377466  -2.649682   2.102583   1.668518  -2.118861   1.293667   0.975413   1.144263   1.409835  -4.819911   4.600120  45.962393  -0.051956  53.149484   0.005609  -1.064117   2.380218  -6.941021   0.149458  -2.404634   1.213335 -11.504338  -7.076475 -41.236777   0.029839 -55.440930   0.076716  -2.195883  -5.925057   7.010856  -7.418901  -5.254784  -2.503878  45.969207  -0.000431   0.004691 -20.761379  -5.991026   1.901292  -9.517670  -0.010673  -0.011516  -5.827876   2.733251   4.175512  50.700867  -0.004390  -0.000595 -20.541765   4.000063   1.567990 -18.675867  -0.030137  -0.005416
 -2.311190   0.858684   4.260705 -14.839864   8.711420   1.629752   9.288148  -0.518929   0.466371   0.584448  -2.476706   2.112625   1.297050  -2.207452   1.416113   0.984843   1.001197   2.004301  -4.486164   4.536944  46.017936  -0.059492  51.345858   0.012215  -1.087622   2.314605  -7.003862   0.264236  -1.718973   0.629475 -11.042455  -6.407124 -41.445055   0.016454 -53.571749   0.067798  -2.298127  -5.678405   7.049861  -7.107987  -5.127436  -2.219642  46.131748  -0.000376   0.004038 -22.126683  -5.991323   1.484139  -8.813418  -0.007677  -0.007616  -5.441719   2.412295   4.210413  50.816301  -0.003742  -0.000745 -22.127195   4.270598   1.952719 -17.043619  -0.029590  -0.005593
